<!-- Generator: Adobe Illustrator 24.0.1, SVG Export Plug-In  -->
<svg version="1.1" xmlns="http://www.w3.org/2000/svg" xmlns:xlink="http://www.w3.org/1999/xlink" x="0px" y="0px" width="29.3px"
	 height="36.2px" viewBox="0 0 29.3 36.2" style="enable-background:new 0 0 29.3 36.2;" xml:space="preserve">
<defs>
</defs>
<path d="M14.7,0c2.5,0,4.7,1,6.3,2.6c1.6,1.6,2.6,3.8,2.6,6.3c0,2.5-1,4.7-2.6,6.3c-0.8,0.8-1.6,1.4-2.6,1.8c2.6,0.7,4.8,2,6.6,3.8
	c2.7,2.7,4.3,6.3,4.3,10.3v1.8c0,0.9-0.4,1.7-0.9,2.3c-0.6,0.6-1.4,0.9-2.3,0.9H3.2c-0.9,0-1.7-0.4-2.3-0.9l0-0.1
	C0.3,34.5,0,33.8,0,32.9v-1.8c0-4,1.7-7.7,4.3-10.3c1.8-1.8,4.1-3.1,6.6-3.8c-0.9-0.4-1.8-1-2.6-1.8c-1.6-1.6-2.6-3.8-2.6-6.3
	c0-2.5,1-4.7,2.6-6.3C10,1,12.2,0,14.7,0L14.7,0z M23.6,22.2c-2.3-2.3-5.5-3.7-9-3.7c-3.5,0-6.6,1.4-9,3.7c-2.3,2.3-3.7,5.5-3.7,9
	v1.8c0,0.3,0.1,0.6,0.3,0.9l0,0c0.2,0.2,0.6,0.3,0.9,0.3h22.9c0.3,0,0.7-0.1,0.9-0.3c0.2-0.2,0.4-0.6,0.4-0.9v-1.8
	C27.4,27.7,26,24.5,23.6,22.2L23.6,22.2z M19.6,4c-1.3-1.2-3-2-4.9-2c-1.9,0-3.7,0.8-4.9,2c-1.3,1.3-2,3-2,4.9c0,1.9,0.8,3.7,2,4.9
	c1.2,1.3,3,2,4.9,2c1.9,0,3.7-0.8,4.9-2c1.2-1.2,2-3,2-4.9C21.6,7,20.8,5.3,19.6,4L19.6,4z"/>
</svg>
