<!-- Generator: Adobe Illustrator 24.0.1, SVG Export Plug-In  -->
<svg version="1.1" xmlns="http://www.w3.org/2000/svg" xmlns:xlink="http://www.w3.org/1999/xlink" x="0px" y="0px" width="26.7px"
	 height="37.8px" viewBox="0 0 26.7 37.8" style="enable-background:new 0 0 26.7 37.8;" xml:space="preserve">
<defs>
</defs>
<path d="M13.4,0c3.7,0,7,1.5,9.4,3.9c2.4,2.4,3.9,5.7,3.9,9.4c0,8-5.1,14.9-9.7,21.4c-0.4,0.6-0.9,1.2-1.4,1.9
	c-0.3,0.4-0.6,0.6-1,0.9c-0.4,0.2-0.8,0.3-1.2,0.3c-0.5,0-0.9-0.1-1.3-0.3c-0.4-0.2-0.7-0.5-0.9-0.9c-0.6-0.8-1-1.3-1.4-1.9
	C5.1,28.3,0,21.4,0,13.4c0-3.7,1.5-7,3.9-9.4C6.4,1.5,9.7,0,13.4,0L13.4,0z M13.4,7.1c1.7,0,3.3,0.7,4.4,1.9
	c1.1,1.1,1.9,2.7,1.9,4.5c0,1.7-0.7,3.3-1.9,4.5c-1.1,1.1-2.7,1.8-4.4,1.8c-1.8,0-3.3-0.7-4.5-1.8c-1.1-1.1-1.9-2.8-1.9-4.5
	c0-1.8,0.7-3.3,1.9-4.5C10.1,7.8,11.6,7.1,13.4,7.1L13.4,7.1z M16.4,10.3c-0.8-0.8-1.9-1.2-3-1.2c-1.2,0-2.3,0.5-3.1,1.2
	C9.5,11.1,9,12.2,9,13.4c0,1.2,0.5,2.3,1.3,3c0.8,0.8,1.9,1.3,3.1,1.3c1.2,0,2.3-0.5,3-1.3c0.8-0.8,1.3-1.9,1.3-3
	C17.7,12.2,17.2,11.1,16.4,10.3L16.4,10.3z M21.4,5.3C19.4,3.2,16.5,2,13.4,2c-3.2,0-6,1.2-8.1,3.3c-2.1,2-3.4,4.9-3.4,8.1
	c0,7.3,4.9,14,9.4,20.2c0.5,0.7,1,1.4,1.4,1.9c0.1,0.1,0.2,0.2,0.3,0.2c0.1,0,0.2,0.1,0.4,0.1c0.1,0,0.2,0,0.3-0.1
	c0.1,0,0.2-0.1,0.3-0.2c0.4-0.5,0.9-1.2,1.4-1.9c4.5-6.2,9.3-12.9,9.3-20.2C24.8,10.2,23.5,7.4,21.4,5.3L21.4,5.3z"/>
</svg>
