<!-- Generator: Adobe Illustrator 24.0.1, SVG Export Plug-In  -->
<svg version="1.1" xmlns="http://www.w3.org/2000/svg" xmlns:xlink="http://www.w3.org/1999/xlink" x="0px" y="0px" width="41.1px"
	 height="26.9px" viewBox="0 0 41.1 26.9" style="enable-background:new 0 0 41.1 26.9;" xml:space="preserve">
<defs>
</defs>
<path d="M1,0h39.1c0.5,0,1,0.4,1,1v24.9c0,0.5-0.5,1-1,1H1c-0.6,0-1-0.5-1-1V1C0,0.4,0.4,0,1,0L1,0z M26,16.3
	c-0.4-0.3-0.5-0.9-0.2-1.4c0.3-0.4,0.9-0.5,1.4-0.2l12,9.2V2.8l-18,11.5c-0.3,0.2-0.7,0.2-1.1,0L1.9,2.7v21.4l12.2-9.3
	c0.4-0.3,1-0.2,1.4,0.2c0.3,0.4,0.2,1-0.2,1.4L4,24.9h33.3L26,16.3z M4.5,1.9l16.1,10.3L36.8,1.9H4.5z"/>
</svg>
