<!-- Generator: Adobe Illustrator 24.0.1, SVG Export Plug-In  -->
<svg version="1.1" xmlns="http://www.w3.org/2000/svg" xmlns:xlink="http://www.w3.org/1999/xlink" x="0px" y="0px" width="42.4px"
	 height="33.8px" viewBox="0 0 42.4 33.8" style="enable-background:new 0 0 42.4 33.8;" xml:space="preserve">
<defs>
</defs>
<path d="M24.2,0c5,0,9.5,1.4,12.7,3.7c3.4,2.4,5.5,5.7,5.5,9.4c0,1.9-0.6,3.7-1.6,5.4c-0.9,1.5-2.2,2.8-3.8,3.9l2,7.2
	c0.2,0.5-0.1,1-0.7,1.2c-0.3,0-0.5,0-0.8-0.1L29,25.8c-0.7,0.1-1.4,0.2-2.2,0.3c-0.9,0.1-1.8,0.1-2.6,0.1c-4.9,0-9.4-1.4-12.7-3.7
	C8.1,20.1,6,16.8,6,13.1c0-3.7,2-7,5.5-9.4C14.8,1.4,19.3,0,24.2,0L24.2,0z M5.3,9.3C3.3,11.2,2,13.5,2,16c0,1.6,0.4,3,1.3,4.4
	c0.9,1.4,2.2,2.7,3.8,3.7c0.4,0.2,0.5,0.7,0.4,1.1L6,30.7l6.7-3.9c0.2-0.1,0.5-0.1,0.7-0.1c0.8,0.1,1.6,0.3,2.3,0.3
	c0.8,0.1,1.6,0.1,2.4,0.1c0.4,0,0.8,0,1.1,0c1.7,0.3,3.4,0.5,5.1,0.5c0.2,0,0.4,0.1,0.4,0.3c0,0.2-0.1,0.4-0.3,0.4
	c-2,0.6-4.1,0.9-6.4,0.9c-0.9,0-1.8,0-2.6-0.1c-0.8-0.1-1.5-0.2-2.2-0.3l-8.5,4.9c-0.2,0.1-0.5,0.2-0.8,0.1
	c-0.6-0.1-0.9-0.7-0.7-1.2l2-7.1c-1.6-1.1-2.9-2.5-3.8-4C0.6,19.8,0,18,0,16c0-3.7,2.1-7,5.5-9.4C7,6.4,6.4,8.6,5.3,9.3L5.3,9.3z
	 M35.8,5.3c-3-2.1-7.1-3.4-11.6-3.4s-8.6,1.3-11.6,3.4C9.7,7.4,8,10.1,8,13.1c0,3,1.8,5.7,4.6,7.8c3,2.1,7.1,3.4,11.6,3.4
	c0.9,0,1.7,0,2.4-0.1c0.8-0.1,1.6-0.2,2.3-0.4c0.2,0,0.5,0,0.7,0.1l6.8,3.9l-1.6-5.5c-0.1-0.4,0-0.9,0.4-1.1c1.6-1,2.9-2.3,3.8-3.7
	c0.9-1.3,1.3-2.8,1.3-4.4C40.4,10.1,38.7,7.4,35.8,5.3L35.8,5.3z"/>
</svg>
