<!-- Generator: Adobe Illustrator 24.0.1, SVG Export Plug-In  -->
<svg version="1.1" xmlns="http://www.w3.org/2000/svg" xmlns:xlink="http://www.w3.org/1999/xlink" x="0px" y="0px" width="44.8px"
	 height="32.6px" viewBox="0 0 44.8 32.6" style="enable-background:new 0 0 44.8 32.6;" xml:space="preserve">
<defs>
</defs>
<path d="M31.3,4.9l6.8,0c0.3,0,0.6,0.1,0.8,0.3l5.6,6.8c0.1,0.2,0.2,0.4,0.2,0.6l0,0v11.8c0,0.5-0.4,0.9-1,0.9h-0.1H30.3H1.1H1
	c-0.5,0-1-0.4-1-0.9V0.9C0,0.4,0.5,0,1,0h29.3c0.6,0,1,0.4,1,0.9V4.9z M14.7,16.4c0.5,0,0.9,0.4,0.9,1c0,0.5-0.4,0.9-0.9,0.9h-2
	c-0.5,0-0.9-0.4-0.9-0.9c0-0.6,0.4-1,0.9-1H14.7z M18.6,18.4c-0.5,0-1-0.4-1-0.9c0-0.6,0.5-1,1-1h5.9c0.5,0,0.9,0.4,0.9,1
	c0,0.5-0.4,0.9-0.9,0.9H18.6z M2,19.6h27.3V5.9c0-0.1,0-0.1,0-0.2V1.9H2V19.6z M29.4,21.5H2v1.9h27.4V21.5z M10.8,25.8
	c1.9,0,3.4,1.5,3.4,3.4c0,1.9-1.5,3.4-3.4,3.4c-1.9,0-3.4-1.5-3.4-3.4C7.4,27.3,8.9,25.8,10.8,25.8L10.8,25.8z M34.4,10.9l0,2.8h4.7
	l-2.4-2.8H34.4z M32.5,14.7l0-4.8c0-0.5,0.5-0.9,1-0.9h3.7c0.3,0,0.6,0.1,0.8,0.4l4,4.7l0,0c0.1,0.2,0.2,0.4,0.2,0.7
	c0,0.5-0.4,0.9-0.9,0.9h-7.7C32.9,15.6,32.5,15.2,32.5,14.7L32.5,14.7z M36.2,25.8c1.9,0,3.4,1.5,3.4,3.4c0,1.9-1.5,3.4-3.4,3.4
	c-1.9,0-3.4-1.5-3.4-3.4C32.8,27.3,34.3,25.8,36.2,25.8L36.2,25.8z M31.3,6.8v16.6h11.5V13l-5.2-6.2L31.3,6.8z"/>
</svg>
