<!-- Generator: Adobe Illustrator 24.0.1, SVG Export Plug-In  -->
<svg version="1.1" xmlns="http://www.w3.org/2000/svg" xmlns:xlink="http://www.w3.org/1999/xlink" x="0px" y="0px" width="42.1px"
	 height="26.6px" viewBox="0 0 42.1 26.6" style="enable-background:new 0 0 42.1 26.6;" xml:space="preserve">
<defs>
</defs>
<path d="M11.6,4.7L8.2,2.3l-5.8,8.4l3.4,2.4L11.6,4.7z M18.1,20L18.1,20L18.1,20L18.1,20L18.1,20L18.1,20c0.1,0,0.1,0.1,0.1,0.1l0,0
	l0,0l0,0c0,0,0.1,0,0.1,0.1l0,0l0,0l0,0l0,0v0l0,0h0l0,0v0l0,0v0l0,0h0l0,0v0l0,0l0,0l0,0l0,0l0,0l0,0l0,0v0l0,0l0,0l0,0l0,0l0,0
	l0,0l0,0v0l0,0l0,0l0,0l0,0l0,0l0,0l0,0v0l0,0l0,0l0,0v0l0,0h0v0l0,0l0,0v0l0,0l0,0l0,0v0l0,0h0l0,0v0l0,0l0,0l0,0v0l0,0l0,0l0,0v0
	l0,0v0l0,0h0l0,0v0l0,0l0,0l0,0v0l0,0l0,0l0,0v0l0,0l0,0l0,0v0l0,0v0l0,0l0,0l0,0v0l0,0l0,0l0,0l0,0l0,0l0,0l0,0v0l0,0v0l0,0l0,0
	l0,0v0l0,0l0,0l0,0v0l0,0l0,0v0l0,0l0,0v0l0,0l0,0l0,0v0h0l0,0l0,0v0l0,0l0,0v0l0,0l0,0v0l0,0l0,0v0l0,0l0,0v0l0,0v0l0,0l0,0l0,0
	l0,0v0v0l0,0v0l0,0c-0.1,0.2-0.2,0.4-0.3,0.6l0,0v0l0,0c0,0-0.1,0.1-0.1,0.2l0,0l0,0l0,0l0,0l0,0l0,0l0,0l0,0l0,0v0h0v0h0l1.8,1.2
	c0.1,0.1,0.3,0.1,0.5,0.1c0.2,0,0.3-0.1,0.4-0.3l0.2-0.3C21,24,21,23.8,21,23.7c0-0.2-0.1-0.3-0.3-0.4l-0.6-0.4l1.1-1.6l0.6,0.4
	c0.1,0,0.2,0.1,0.3,0.2c0.1,0,0.3,0.2,0.4,0.3c0.5,0.3,1.2,0.8,1.6,0.2l0.2-0.3c0.1-0.1,0.1-0.3,0.1-0.5c0-0.2-0.1-0.3-0.2-0.4
	l-0.6-0.4l0.2-0.3c0-0.2,0-0.4,0.1-0.5c0.1-0.3,0.4-0.5,0.7-0.5l0.1-0.3l0.6,0.4c0.2,0.1,0.6,0.2,0.9,0.2c0.2,0,0.4,0,0.5-0.1
	c0,0,0,0,0,0l0.1-0.2C27,19.2,27,19,27,18.9c0-0.1-0.1-0.2-0.2-0.2l-0.6-0.4l1.1-1.6L28,17c0.1,0.1,0.3,0.1,0.5,0.1
	c0.1,0,0.3-0.1,0.4-0.2l0,0c0,0,0,0,0,0l0,0l0,0l0,0l0,0v0l0,0l0,0l0,0l0,0l0,0c0,0,0-0.1,0-0.1v0l0,0l0,0c0-0.1,0-0.2,0-0.3
	c0-0.1-0.1-0.1-0.2-0.2l-0.8-0.5l-7.5-5.5c-0.6-0.1-1.8,0.4-2.9,1c-0.9,0.4-1.8,0.8-2.6,1c-1.5,0.3-2.7,0-3.1-2v0l0,0v0
	c-0.2-1.1,0-1.7,0.5-2.1c0.3-0.5,0.7-0.7,1.1-0.9l-0.8-0.4l-4.5,6.4L9,14.4v0l0,0h0l0,0l0,0l0,0l0,0h0l0,0v0h0l0,0l0,0l0,0l0,0h0
	l0,0l0,0l0,0h0v0l0,0l0,0h0l0,0h0v0l0,0l0,0h0l0,0l0,0h0l0,0l0,0v0h0.1l0,0h0l0,0v0l0,0l0,0h0l0,0h0l0,0l0,0l0,0l0,0l0,0h0l0,0v0h0
	l0,0l0,0l0,0h0l0,0l0,0l0,0h0l0,0l0,0l0,0l0,0h0l0,0l0,0l0,0h0l0,0v0h0l0,0l0,0l0,0l0,0h0l0,0l0,0l0,0h0l0,0l0,0l0,0h0l0,0l0,0h0
	l0,0l0,0h0l0,0l0,0l0,0h0l0,0l0,0l0,0h0l0,0h0l0,0l0,0l0,0h0l0,0l0,0l0,0h0l0,0l0,0h0l0,0l0,0l0,0h0l0,0h0l0,0l0,0h0v0l0,0l0,0h0
	l0,0l0,0h0l0,0l0,0h0l0,0l0,0h0l0,0l0,0l0,0l0,0l0,0l0,0l0,0h0l0,0l0,0h0l0,0h0l0,0v0l0,0h0l0,0l0,0l0,0h0l0,0l0,0l0,0l0,0l0,0l0,0
	l0,0h0l0,0l0,0h0l0,0v0l0,0h0l0,0l0,0h0l0,0v0h0l0,0l0,0l0,0h0l0,0v0l0,0h0l0,0l0,0l0,0l0,0l0,0l0,0l0,0h0l0,0v0l0,0h0l0,0l0,0l0,0
	l0,0l0,0l0,0l0,0l0,0l0,0l0,0l0,0l0,0h0l0,0l0,0c0,0,0,0.1,0.1,0.1l0,0l0,0l0,0l0,0l0,0l0,0v0l0,0l0,0l0,0l0,0h0l0,0l0,0l0,0l0,0
	l0,0l0,0l0,0l0,0l0,0l0,0v0l0,0l0,0l0,0h0l0,0l0,0l0,0l0,0l0,0l0,0l0,0l0,0l0,0l0,0l0,0v0l0,0l0,0l0,0l0,0h0l0,0l0,0l0,0l0,0l0,0
	l0,0v0l0,0l0,0l0,0l0,0l0,0h0v0l0,0l0,0l0,0l0,0l0,0l0,0l0,0h0l0,0v0l0,0h0l0,0v0l0,0h0l0,0v0l0,0c0,0,0.1,0,0.1-0.1h0l0,0
	c0,0,0,0,0.1,0l0,0v0l0,0h0l0,0l0,0l0,0l0,0l0,0l0,0h0l0,0l0,0l0,0h0l0,0l0,0l0,0l0.1,0l0,0l0,0c0,0,0.1,0,0.1,0l0,0h0l0,0l0,0l0,0
	l0,0l0,0h0l0,0l0,0h0l0,0l0,0l0,0h0l0,0v0l0,0h0l0,0l0,0l0,0h0l0,0l0,0h0l0,0l0,0h0l0,0l0,0l0,0h0l0,0l0,0l0,0h0l0,0l0,0l0,0h0l0,0
	l0,0l0,0l0,0h0l0,0l0,0l0,0h0l0,0l0,0l0,0h0l0,0h0l0,0l0,0l0,0h0l0,0l0,0l0,0l0,0l0,0l0,0h0l0,0l0,0l0,0h0l0,0h0l0,0l0,0h0l0,0l0,0
	l0,0h0l0,0l0,0h0l0,0l0,0h0v0l0,0h0l0,0l0,0l0,0h0l0,0l0,0l0,0h0l0,0l0,0l0,0l0,0l0,0h0l0,0l0,0l0,0h0l0,0l0,0l0,0l0,0l0,0l0,0l0,0
	h0l0,0l0,0l0,0h0l0,0v0h0l0,0l0,0l0,0h0l0,0v0l0,0h0l0,0l0,0h0l0,0l0,0v0h0l0,0l0,0l0,0h0v0l0,0l0,0h0l0,0l0,0v0h0l0,0l0,0h0l0,0v0
	h0l0,0l0,0l0,0v0l0,0h0v0h0l0,0c0,0,0,0,0.1,0.1l0,0l0,0l0,0l0,0h0l0,0v0l0,0l0,0h0v0l0,0l0,0l0,0l0,0l0,0l0,0l0,0h0v0l0,0l0,0l0,0
	l0,0l0,0l0,0l0,0l0,0v0l0,0h0l0,0v0l0,0l0,0l0,0l0,0l0,0l0,0l0,0v0l0,0h0l0,0v0l0,0l0,0l0,0l0,0l0,0l0,0l0,0v0l0,0l0,0h0v0l0,0l0,0
	l0,0v0h0l0,0v0l0,0l0,0l0,0v0l0,0l0,0l0,0l0,0l0,0v0c0,0,0,0,0,0.1l0,0v0.1l0,0l0,0l0,0l0,0v0l0,0l0,0c0,0,0,0.1,0,0.1l0,0l0,0l0,0
	v0.1l0,0v0l0,0l0,0l0,0v0l0,0l0,0l0,0v0l0,0v0l0,0l0,0v0l0,0l0,0l0,0v0l0,0l0,0l0,0l0,0v0l0,0l0,0l0,0l0,0v0l0,0l0,0l0,0v0l0,0v0
	l0,0l0,0l0,0l0,0v0l0,0l0,0l0,0l0,0v0l0,0l0,0l0,0v0l0,0l0,0l0,0l0,0v0l0,0l0,0c0,0,0,0,0,0.1l0,0v0l0,0v0l0,0l0,0l0,0v0l0,0l0,0
	l0,0l0,0l0,0l0,0h0l0,0l0,0l0,0l0,0l0,0l0,0h0l0,0l0,0l0,0l0,0l0,0v0l0,0h0l0,0l0,0l0,0l0,0l0,0l0,0l0,0h0l0,0l0,0v0l0,0l0,0l0,0
	l0,0h0l0,0l0,0l0,0l0,0l0,0l0,0l0,0l0,0l0,0l0,0l0,0l0,0l0,0l0,0l0,0l0,0h0l0,0l0,0v0l0,0l0,0l0,0l0,0h0l0,0l0,0l0,0l0,0l0,0l0,0
	l0,0v0h0l0,0l0,0l0,0l0,0l0,0l0,0l0,0l0,0l0,0l0,0l0,0l0,0l0,0l0,0l0,0l0,0c0,0,0,0,0.1,0.1l0,0l0,0h0v0l0,0l0,0l0,0h0l0,0v0l0,0h0
	l0,0v0l0,0l0,0l0,0l0,0l0,0l0,0l0,0l0,0l0,0l0,0l0,0l0,0l0,0l0,0l0,0l0,0v0l0,0h0l0,0v0l0,0l0,0l0,0l0,0l0,0l0,0l0,0v0l0,0h0l0,0v0
	l0,0l0,0l0,0v0h0l0,0v0l0,0l0,0l0,0l0,0l0,0l0,0l0,0v0l0,0l0,0l0,0v0l0,0l0,0l0,0l0,0l0,0v0l0,0l0,0l0,0l0,0v0l0,0l0,0l0,0v0l0,0
	l0,0l0,0l0,0l0,0v0l0,0l0,0l0,0v0l0,0l0,0l0,0v0l0,0l0,0l0,0l0,0l0,0l0,0l0,0v0l0,0v0l0,0l0,0l0,0v0l0,0l0,0l0,0v0l0,0l0,0l0,0v0
	l0,0v0l0,0l0,0v0l0,0l0,0l0,0l0,0l0,0v0l0,0l0,0l0,0l0,0l0,0l0,0l0,0l0,0v0l0,0l0,0l0,0h0l0,0l0,0v0l0,0l0,0l0,0h0l0,0l0,0l0,0v0
	l0,0l0,0l0,0l0,0l0,0l0,0l0,0v0l0,0l0,0l0,0l0,0l0,0l0,0v0l0,0l0,0l0,0l0,0l0,0l0,0l0,0v0l0,0l0,0l0,0l0,0l0,0l0,0l0,0v0l0,0l0,0
	l0,0l0,0l0,0l0,0l0,0v0l0,0l0,0l0,0l0,0l0,0l0,0v0l0,0l0,0l0,0l0,0l0,0l0,0l0,0l0,0l0,0l0,0l0,0l0,0h0l0,0l0,0l0,0l0,0l0,0l0,0h0
	l0,0v0l0,0l0,0l0,0l0,0h0l0,0l0,0l0,0l0,0l0,0l0,0h0v0l0,0l0,0l0,0l0,0l0,0h0l0,0l0,0l0,0l0,0l0,0l0,0v0h0l0,0l0,0h0l0,0l0,0v0l0,0
	l0,0l0,0h0l0,0l0,0l0,0l0,0l0,0v0h0l0,0l0,0l0,0l0,0l0,0h0v0l0,0l0,0h0l0,0l0,0l0,0L18.1,20L18.1,20L18.1,20L18.1,20L18.1,20
	L18.1,20L18.1,20L18.1,20L18.1,20L18.1,20L18.1,20L18.1,20L18.1,20L18.1,20L18.1,20L18.1,20L18.1,20L18.1,20L18.1,20L18.1,20
	L18.1,20L18.1,20L18.1,20L18.1,20L18.1,20L18.1,20L18.1,20L18.1,20L18.1,20L18.1,20L18.1,20L18.1,20L18.1,20L18.1,20L18.1,20
	L18.1,20L18.1,20L18.1,20L18.1,20L18.1,20L18.1,20L18.1,20L18.1,20L18.1,20L18.1,20L18.1,20L18.1,20L18.1,20L18.1,20L18.1,20
	L18.1,20L18.1,20L18.1,20L18.1,20L18.1,20L18.1,20L18.1,20L18.1,20L18.1,20L18.1,20L18.1,20L18.1,20L18.1,20L18.1,20z M16.7,24.8
	L16.7,24.8c-0.5,0.5-1,0.7-1.6,0.8c-0.6,0-1.1-0.1-1.6-0.5c0,0,0,0-0.1-0.1c-0.3-0.3-0.6-0.8-0.7-1.2c-0.5,0-0.9-0.2-1.3-0.6l0,0
	c-0.4-0.3-0.6-0.7-0.7-1.2c-0.4,0-0.9-0.2-1.3-0.6l0,0C9,21,8.8,20.7,8.7,20.2c-0.5-0.1-0.9-0.3-1.3-0.6h0c-0.5-0.4-0.7-1-0.8-1.6
	c0-0.6,0.2-1.2,0.6-1.7c0.1-0.1,0.3-0.3,0.4-0.5l-0.7-1.2L6.8,15c-0.3,0.4-0.9,0.5-1.4,0.2l-5-3.5c-0.4-0.3-0.5-0.9-0.2-1.4l7-10
	C7.5,0,8.1-0.1,8.5,0.2l5,3.5C13.9,4,14,4.5,13.7,5l2.1,0.9L18.8,4c0.2-0.1,0.4-0.2,0.6-0.1l8.9,0.9c-0.1-0.4,0-0.8,0.3-1.1l5-3.5
	c0.4-0.3,1-0.2,1.4,0.2l7,10c0.3,0.4,0.2,1-0.2,1.4l-5,3.5c-0.4,0.3-1,0.2-1.4-0.2l-0.2-0.4l-4.9,3.7c0,0-0.1,0.1-0.1,0.1
	c-0.3,0.3-0.7,0.5-1.1,0.6c0,0.5-0.2,1-0.5,1.5l-0.2,0.3c-0.4,0.6-1.1,0.9-1.8,0.9c0,0.5-0.2,1-0.5,1.5l-0.2,0.3
	c-0.9,1.2-1.9,1.3-2.8,1c-0.1,0.2-0.2,0.5-0.4,0.8l-0.2,0.3c-0.4,0.6-1,0.9-1.7,1c-0.6,0.1-1.3,0-1.9-0.4L16.7,24.8z M16.3,21.3
	c0,0-0.1,0-0.1,0.1l0,0l0,0l0,0L14.7,23l0,0l0,0l0,0c-0.1,0.1-0.1,0.2-0.1,0.3c0,0,0,0.1,0.1,0.2h0c0,0.1,0.1,0.1,0.2,0.1
	s0.2,0,0.2-0.1l1.3-1.5l0.2-0.2l0,0l0,0l0,0c0,0,0,0,0,0l0,0h0l0,0l0,0l0,0l0,0l0,0v0l0,0l0,0l0,0l0,0l0,0l0,0l0,0l0,0l0,0l0,0l0,0
	v0l0,0l0,0l0,0l0,0l0,0l0,0l0,0l0,0l0,0l0,0l0,0v0l0,0l0,0l0,0l0,0l0,0l0,0l0,0l0,0l0,0l0,0l0,0l0,0h0v0l0,0l0,0l0,0l0,0l0,0l0,0
	l0,0l0,0l0,0l0,0l0,0h0l0,0l0,0l0,0l0,0v0l0,0l0,0l0,0l0,0l0,0l0,0l0,0l0,0l0,0l0,0l0,0l0,0l0,0l0,0l0,0l0,0v0l0,0l0,0l0,0l0,0l0,0
	l0,0l0,0l0,0l0,0l0,0l0,0l0,0l0,0l0,0l0,0l0,0l0,0l0,0v0l0,0l0,0l0,0l0,0l0,0l0,0l0,0l0,0l0,0l0,0l0,0l0,0c0,0,0,0,0,0l0,0l0,0l0,0
	v0l0,0c0,0,0,0,0,0l0,0l0,0l0,0l0,0l0,0l0,0l0,0l0,0l0,0l0,0h0l0,0l0,0l0,0l0,0l0,0l0,0l0,0l0,0l0,0l0,0l0,0l0,0l0,0l0,0l0,0l0,0v0
	l0,0l0,0l0,0l0,0l0,0h0l0,0l0,0l0,0l0,0l0,0l0,0l0,0l0,0l0,0l0,0l0,0l0,0l0,0l0,0l0,0l0,0h0l0,0l0,0l0,0l0,0l0,0l0,0l0,0l0,0l0,0
	l0,0l0,0l0,0l0,0l0,0l0,0l0,0l0,0l0,0l0,0l0,0l0,0h0l0,0l0,0l0,0l0,0l0,0l0,0l0,0l0,0l0,0v0l0,0l0,0l0,0l0,0l0,0l0,0l0,0l0,0l0,0h0
	l0,0l0,0l0,0l0,0l0,0l0,0l0,0l0,0l0,0l0,0l0,0l0,0l0,0l0,0l0,0l0,0l0,0l0,0l0,0L16.3,21.3L16.3,21.3L16.3,21.3L16.3,21.3L16.3,21.3
	L16.3,21.3L16.3,21.3L16.3,21.3L16.3,21.3L16.3,21.3L16.3,21.3L16.3,21.3L16.3,21.3L16.3,21.3L16.3,21.3L16.3,21.3L16.3,21.3
	L16.3,21.3L16.3,21.3L16.3,21.3L16.3,21.3L16.3,21.3L16.3,21.3L16.3,21.3L16.3,21.3L16.3,21.3L16.3,21.3L16.3,21.3L16.3,21.3
	L16.3,21.3L16.3,21.3L16.3,21.3L16.3,21.3L16.3,21.3L16.3,21.3L16.3,21.3L16.3,21.3L16.3,21.3L16.3,21.3L16.3,21.3L16.3,21.3
	L16.3,21.3L16.3,21.3z M15.3,18.9L15.3,18.9L15.3,18.9L15.3,18.9L15.3,18.9L15.3,18.9L15.3,18.9L15.3,18.9L15.3,18.9L15.3,18.9
	L15.3,18.9L15.3,18.9L15.3,18.9L15.3,18.9l-0.1-0.1l0,0l0,0l0,0l0,0l0,0l0,0l0,0l0,0l0,0l0,0l0,0l0,0l0,0l0,0h0l0,0l0,0l0,0l0,0l0,0
	l0,0l0,0l0,0l0,0l0,0l0,0l0,0l0,0l0,0l0,0l0,0l0,0l0,0l0,0l0,0l0,0h0l0,0l0,0l0,0l0,0l0,0l0,0l0,0l0,0l0,0l0,0l0,0l0,0l0,0l0,0l0,0
	l0,0l0,0l0,0l0,0l0,0l0,0h0l0,0l0,0l0,0l0,0l0,0l0,0l0,0l0,0l0,0l0,0l0,0l0,0l0,0l0,0l0,0l0,0l0,0l0,0l0,0h0l0,0l0,0l0,0l0,0l0,0
	l0,0l0,0l0,0l0,0l0,0l0,0l0,0l0,0l0,0l0,0l0,0l0,0l0,0l0,0l0,0l0,0h0l0,0l0,0l0,0l0,0l0,0l0,0l0,0l0,0l0,0l0,0l0,0l0,0l0,0l0,0l0,0
	l0,0l0,0l0,0l0,0l0,0l0,0l0,0h0l0,0l0,0l0,0l0,0l0,0l0,0l0,0l0,0l0,0l0,0l0,0l0,0v0l0,0l0,0l0,0l0,0l0,0l0,0l0,0l0,0l0,0l0,0h0l0,0
	l0,0l0,0l0,0l0,0l0,0l0,0l0,0l0,0l0,0l0,0l0,0l0,0l0,0l0,0l0,0l0,0l0,0l0,0l0,0l0,0l0,0l0,0l0,0h0l0,0v0l0,0l0,0l0,0l0,0l0,0l0,0
	l0,0l0,0l0,0l0,0l0,0l0,0l0,0l0,0l0,0l0,0l0,0l0,0l0,0l0,0l0,0l-2.1,2.4c0,0-0.1,0.1-0.1,0.2s0,0.2,0.1,0.2v0c0.1,0,0.2,0,0.3,0
	s0.1,0,0.2-0.1l0,0l0,0l1.5-1.7l0,0l0,0l0.6-0.7l0,0l0,0h0v0l0,0l0,0l0,0l0,0l0,0l0,0l0,0l0,0l0,0l0,0l0,0l0,0l0,0l0,0l0,0l0,0l0,0
	l0,0l0,0l0,0l0,0v0l0,0l0,0l0,0l0,0l0,0l0,0l0,0l0,0l0,0h0l0,0l0,0l0,0l0,0l0,0l0,0l0,0l0,0l0,0l0,0l0,0l0,0l0,0v0l0,0l0,0l0,0l0,0
	l0,0l0,0l0,0l0,0l0,0l0,0l0,0l0,0l0,0l0,0l0,0l0,0l0,0l0,0l0,0l0,0v0l0,0l0,0l0,0l0,0l0,0l0,0l0,0l0,0l0,0l0,0l0,0l0,0l0,0l0,0l0,0
	l0,0l0,0l0,0l0,0l0,0v0l0,0l0,0l0,0l0,0l0,0l0,0l0,0l0,0l0,0l0,0l0,0l0,0l0,0l0,0l0,0l0,0v0l0,0l0,0l0,0l0,0l0,0l0,0l0,0l0,0l0,0
	l0,0l0,0l0,0l0,0l0,0l0,0v0l0,0l0,0l0,0l0,0l0,0l0,0l0,0l0,0l0,0l0,0l0,0l0,0l0,0l0,0l0,0l0,0l0,0l0,0l0,0l0,0l0,0v0l0,0l0,0l0,0
	l0,0l0,0l0,0l0,0l0,0l0,0l0,0l0,0l0,0l0,0l0,0l0,0l0,0l0,0l0,0l0,0l0,0l0,0l0,0l0,0L15.3,18.9L15.3,18.9L15.3,18.9L15.3,18.9
	L15.3,18.9L15.3,18.9L15.3,18.9L15.3,18.9L15.3,18.9L15.3,18.9L15.3,18.9L15.3,18.9L15.3,18.9L15.3,18.9L15.3,18.9L15.3,18.9
	L15.3,18.9L15.3,18.9L15.3,18.9L15.3,18.9L15.3,18.9L15.3,18.9L15.3,18.9L15.3,18.9L15.3,18.9L15.3,18.9L15.3,18.9L15.3,18.9
	L15.3,18.9L15.3,18.9L15.3,18.9L15.3,18.9L15.3,18.9L15.3,18.9L15.3,18.9L15.3,18.9L15.3,18.9L15.3,18.9L15.3,18.9L15.3,18.9
	L15.3,18.9L15.3,18.9L15.3,18.9L15.3,18.9L15.3,18.9L15.3,18.9L15.3,18.9L15.3,18.9L15.3,18.9L15.3,18.9L15.3,18.9L15.3,18.9
	L15.3,18.9L15.3,18.9L15.3,18.9L15.3,18.9L15.3,18.9L15.3,18.9L15.3,18.9L15.3,18.9L15.3,18.9L15.3,18.9L15.3,18.9z M13.6,16.2
	L13.6,16.2l-1.4,1.6h0l-1.5,1.7l0,0c0,0,0,0.1,0,0.2c0,0.1,0,0.2,0.1,0.2l0,0c0,0,0.1,0.1,0.2,0c0.1,0,0.2,0,0.2-0.1l0,0h0l0,0
	l0-0.1l2-2.3v0l0.9-0.9l0,0l0,0l0,0l0,0l0,0l0,0l0,0l0,0l0,0l0,0l0,0l0,0l0,0l0,0l0,0l0,0v0l0,0l0,0l0,0l0,0l0,0l0,0l0,0l0,0l0,0
	l0,0l0,0l0,0l0,0l0,0l0,0l0,0l0,0l0,0l0,0l0,0l0,0l0,0l0,0l0,0l0,0l0,0l0,0l0,0l0,0l0,0l0,0l0,0l0,0l0,0l0,0l0,0l0,0l0,0l0,0l0,0
	l0,0l0,0l0,0l0,0v0l0,0l0,0l0,0l0,0l0,0l0,0l0,0l0,0l0,0l0,0l0,0l0,0l0,0l0,0l0,0v0l0,0l0,0l0,0l0,0l0,0l0,0l0,0l0,0l0,0l0,0v0l0,0
	l0,0l0,0l0,0l0,0l0,0l0,0v0l0,0l0,0l0,0l0,0l0,0l0,0l0,0l0,0l0,0l0,0l0,0l0,0v0l0,0l0,0l0,0l0,0l0,0l0,0l0,0l0,0l0,0l0,0l0,0l0,0
	l0,0l0,0l0,0l0,0l0,0l0,0l0,0v0l0,0l0,0l0,0l0,0l0,0l0,0l0,0l0,0l0,0h0l0,0l0,0l0,0l0,0l0,0l0,0l0,0l0,0l0,0l0,0l0,0l0,0l0,0l0,0
	l0,0v0l0,0l0,0l0,0l0,0l0,0l0,0l0,0l0,0l0,0l0,0l0,0l0,0l0,0l0,0l0,0l0,0l0,0l0,0l0,0l0,0l0,0l0,0l0,0l0,0l0,0l0,0l0,0l0,0l0,0l0,0
	l0,0l0,0l0,0l0,0l0,0l0,0l0,0l0,0l0,0l0,0l0,0l0,0l0,0l0,0l0,0l0,0l0,0l0,0l0,0l0,0l0,0l0,0l0,0l0,0l0,0l0,0l0,0l0,0l0,0l0,0l0,0
	l0,0l0,0l0,0h0l0,0l0,0l0,0l0,0l0,0l0,0l0,0v0l0,0l0,0l0,0l0,0l0,0l0,0l0,0l0,0l0,0l0,0l0,0l0,0l0,0l0,0l0,0l0,0l0,0h0l0,0l0,0l0,0
	l0,0l0,0l0,0l0,0l0,0l0,0l0,0l0,0l0,0l0,0l0,0l0,0l0,0l0,0l0,0l0,0l0,0l0,0h0l0,0l0,0l0,0l0,0l0,0l0,0l0,0l0,0l0,0l0,0l0,0l0,0l0,0
	l0,0l0,0l0,0l0,0l0,0l0,0l0,0l0,0h0l0,0l0,0l0,0l0,0l0,0l0,0l0,0l0,0l0,0l0,0l0,0l0,0l0,0l0,0l0,0l0,0l0,0l0,0l0,0l0,0l0,0l0,0l0,0
	h0l0,0l0,0l0,0l0,0l0,0l0,0l0,0l0,0l0,0l0,0l0,0l0,0l0,0l0,0l0,0l0,0h0l0,0l0,0l0,0l0,0l0,0l0,0l0,0l0,0l0,0l0,0l0,0l0,0l0,0l0,0
	l0,0l0,0l0,0l0,0l0,0l0,0l0,0l0,0h0l0,0l0,0l0,0l0,0l0,0l0,0l0,0l0,0l0,0l0,0l0,0l0,0l0,0l0,0l0,0l0,0l0,0l0,0l0,0l0,0l0,0l0,0
	L13.6,16.2L13.6,16.2L13.6,16.2L13.6,16.2L13.6,16.2L13.6,16.2L13.6,16.2L13.6,16.2L13.6,16.2L13.6,16.2L13.6,16.2L13.6,16.2
	L13.6,16.2L13.6,16.2L13.6,16.2L13.6,16.2L13.6,16.2L13.6,16.2L13.6,16.2L13.6,16.2L13.6,16.2L13.6,16.2L13.6,16.2L13.6,16.2
	L13.6,16.2L13.6,16.2L13.6,16.2L13.6,16.2L13.6,16.2L13.6,16.2L13.6,16.2L13.6,16.2L13.6,16.2L13.6,16.2L13.6,16.2L13.6,16.2
	L13.6,16.2L13.6,16.2L13.6,16.2L13.6,16.2L13.6,16.2L13.6,16.2L13.6,16.2L13.6,16.2L13.6,16.2L13.6,16.2L13.6,16.2L13.6,16.2
	L13.6,16.2L13.6,16.2L13.6,16.2L13.6,16.2L13.6,16.2L13.6,16.2L13.6,16.2L13.6,16.2L13.6,16.2L13.6,16.2L13.6,16.2L13.6,16.2
	L13.6,16.2L13.6,16.2L13.6,16.2L13.6,16.2L13.6,16.2L13.6,16.2z M10.7,16L10.7,16C10.6,15.9,10.6,15.9,10.7,16L10.7,16L10.7,16
	L10.7,16l-0.1,0l0,0l0,0l0,0l0,0l0,0v0l0,0l0,0l0,0l0,0l0,0h0l0,0l0,0l0,0l0,0l0,0l0,0l0,0l0,0l0,0l0,0l0,0l0,0l0,0l0,0l0,0l0,0l0,0
	l0,0l0,0l0,0h0l0,0l0,0l0,0l0,0l0,0l0,0l0,0l0,0l0,0l0,0l0,0l0,0l0,0l0,0l0,0l0,0l0,0l0,0l0,0l0,0l0,0h0l0,0l0,0l0,0l0,0l0,0l0,0
	l0,0l0,0l0,0l0,0l0,0l0,0l0,0l0,0l0,0l0,0l0,0l0,0l0,0l0,0h0l0,0l0,0l0,0l0,0l0,0l0,0l0,0l0,0l0,0l0,0l0,0l0,0l0,0l0,0l0,0l0,0l0,0
	l0,0l0,0l0,0l0,0l0,0h0l0,0l0,0l0,0l0,0l0,0l0,0l0,0l0,0l0,0l0,0l0,0l0,0l0,0l0,0l0,0l0,0l0,0l0,0v0l0,0l0,0l0,0h0l0,0l0,0l0,0l0,0
	l0,0l0,0l0,0l0,0l0,0l0,0l0,0l0,0l0,0l0,0l0,0l0,0l0,0l0,0l0,0l0,0h0l0,0l0,0l0,0l0,0l0,0l0,0l0,0l0,0l0,0l0,0l0,0l0,0l0,0l0,0l0,0
	l0,0l0,0v0l0,0l0,0l0,0l0,0l0,0l0,0h0l0,0l0,0l0,0l0,0l0,0l0,0l0,0l0,0l0,0l0,0l0,0l0,0l0,0l0,0l0,0l0,0l0,0l0,0l0,0l-1.5,1.7
	c0,0-0.1,0.1-0.1,0.2c0,0.1,0,0.2,0.1,0.2v0c0.1,0,0.2,0.1,0.3,0.1c0.1,0,0.2,0,0.2-0.1l0,0l0,0l0,0l0,0l0,0l0,0l1.4-1.5l0,0l0,0
	l0,0l0,0l0,0v0l0,0l0,0l0,0l0,0l0,0l0,0l0,0l0,0l0,0l0,0l0,0l0,0l0,0l0,0l0,0l0,0l0,0l0,0l0,0l0,0l0,0l0,0l0,0l0,0v0l0,0l0,0l0,0
	l0,0l0,0l0,0l0,0l0,0l0,0l0,0l0,0h0l0,0l0,0l0,0l0,0l0,0l0,0l0,0l0,0l0,0l0,0l0,0v0l0,0l0,0l0,0l0,0l0,0l0,0l0,0l0,0l0,0l0,0l0,0
	l0,0l0,0l0,0l0,0l0,0l0,0l0,0l0,0v0l0,0l0,0l0,0l0,0l0,0l0,0l0,0l0,0l0,0l0,0l0,0l0,0l0,0l0,0l0,0l0,0l0,0l0,0l0,0l0,0v0l0,0l0,0
	l0,0l0,0l0,0l0,0l0,0l0,0l0,0l0,0l0,0l0,0l0,0l0,0l0,0l0,0l0,0l0,0l0,0l0,0l0,0v0l0,0l0,0l0,0l0,0l0,0l0,0l0,0l0,0l0,0l0,0l0,0l0,0
	l0,0l0,0l0,0l0,0l0,0l0,0l0,0l0,0l0,0v0l0,0l0,0l0,0l0,0l0,0l0,0l0,0l0,0l0,0l0,0l0,0l0,0l0,0l0,0l0,0l0,0l0,0l0,0l0,0l0,0l0,0v0
	l0,0l0,0l0,0l0,0l0,0l0,0l0,0l0,0l0,0l0,0l0,0l0,0l0,0l0,0l0,0l0,0l0,0l0,0h0l0,0l0,0l0,0l0,0L10.7,16L10.7,16L10.7,16L10.7,16
	L10.7,16L10.7,16L10.7,16L10.7,16L10.7,16L10.7,16L10.7,16L10.7,16L10.7,16L10.7,16L10.7,16L10.7,16L10.7,16L10.7,16L10.7,16
	L10.7,16L10.7,16L10.7,16L10.7,16L10.7,16L10.7,16L10.7,16L10.7,16L10.7,16L10.7,16L10.7,16L10.7,16L10.7,16L10.7,16L10.7,16
	L10.7,16L10.7,16L10.7,16L10.7,16L10.7,16L10.7,16L10.7,16L10.7,16L10.7,16L10.7,16L10.7,16L10.7,16L10.7,16L10.7,16L10.7,16
	L10.7,16L10.7,16L10.7,16L10.7,16L10.7,16L10.7,16L10.7,16z M33.9,2.3l-3.4,2.3l5.8,8.4l3.4-2.4L33.9,2.3z M29.3,6.8l-9.7-0.9
	l-3.8,2.5c-0.5,0.3-0.9,0.5-1.3,0.7c-0.4,0.2-0.7,0.3-0.6,0.7l0,0l0,0l0,0c0.1,0.5,0.4,0.6,0.8,0.5c0.6-0.1,1.4-0.5,2.1-0.9
	c1.6-0.8,3.2-1.6,4.6-1c0.1,0,0.2,0,0.3,0.1c2.8,2,5.5,4.1,8.3,6c0.3,0.2,0.6,0.5,0.8,0.9h0l0,0l0,0l0,0l0,0l0,0l0,0l0,0l0,0l0,0v0
	l0,0l0,0l0,0l0,0l0,0l0,0l0,0l0,0l0,0l0,0l0,0l0,0l0,0l0,0l0,0l0,0l0,0v0l0,0l0,0l0,0l0,0h0l0,0l0,0l0,0l0,0l0,0l0,0l0,0l0,0l0,0
	l0,0l0,0l0,0v0l0,0l0,0l0,0l0,0l0,0l0,0l0,0l0,0l0,0l0,0l0,0l0,0l0,0l0,0l0,0l0,0l0,0v0l0,0l0,0l0,0l0,0l0,0l0,0h0l0,0l0,0l0,0l0,0
	l0,0l0,0l0,0l0,0l0,0l3.1-2.3L29.3,6.8z"/>
</svg>
