<!-- Generator: Adobe Illustrator 24.0.1, SVG Export Plug-In  -->
<svg version="1.1" xmlns="http://www.w3.org/2000/svg" xmlns:xlink="http://www.w3.org/1999/xlink" x="0px" y="0px" width="31.7px"
	 height="34.9px" viewBox="0 0 31.7 34.9" style="enable-background:new 0 0 31.7 34.9;" xml:space="preserve">
<defs>
</defs>
<path d="M10.2,14.8c0.7,1.6,1.8,3.3,3.1,4.9c1.2,1.4,2.6,2.8,4.2,3.8c0.3,0.2,0.6,0.3,0.8,0.3c0.1,0,0.2,0,0.3-0.1l2.8-2.4
	c0.5-0.4,1.1-0.6,1.8-0.6c0.6,0,1.2,0.3,1.7,0.7c0.9,0.9,1.9,1.8,2.8,2.6c0.9,0.8,1.9,1.6,2.9,2.4c0.3,0.2,0.6,0.5,0.8,0.9
	c0.1,0.3,0.2,0.7,0.2,1.1c0,0.4,0,0.8-0.2,1.1c-0.2,0.3-0.4,0.7-0.7,0.9l-4.2,3.5c-0.6,0.5-1.3,0.9-2,0.9c-0.7,0.1-1.5,0-2.2-0.2
	c-2.8-1.1-5.5-2.5-7.9-4.3c-2.4-1.7-4.7-3.7-6.6-6.1c-2-2.4-3.7-4.9-4.9-7.5C1.6,14,0.6,11.1,0.1,8.2C-0.1,7.4,0,6.7,0.2,6
	c0.2-0.7,0.7-1.3,1.3-1.8l4.2-3.6c0.3-0.3,0.7-0.5,1-0.6h0C7.1,0,7.5,0,7.8,0.1c0.4,0,0.8,0.2,1,0.4C9.2,0.7,9.4,1,9.6,1.4
	c0.6,1,1.2,2.1,1.9,3.2c0.7,1.1,1.3,2.2,2,3.2C13.9,8.4,14,9,13.9,9.7c-0.1,0.6-0.4,1.2-0.9,1.6l-2.9,2.4C10,13.8,10,13.9,10,14
	C10,14.2,10.1,14.5,10.2,14.8L10.2,14.8z M11.9,21c-1.5-1.8-2.7-3.7-3.5-5.4C8.2,15,8,14.4,8.1,13.8c0-0.6,0.3-1.1,0.9-1.6l2.8-2.5
	c0.1-0.1,0.2-0.2,0.2-0.4c0-0.1,0-0.3-0.1-0.4c-0.8-1.1-1.4-2.2-2.1-3.3C9.1,4.5,8.5,3.4,7.9,2.3c0-0.1-0.1-0.2-0.2-0.2
	c0,0-0.1,0-0.2-0.1C7.4,2,7.3,2,7.2,2l0,0C7.1,2,7,2.1,7,2.1L2.7,5.7C2.4,6,2.2,6.3,2.1,6.6C1.9,7,1.9,7.4,2,7.8
	c0.6,2.8,1.5,5.5,2.7,8.1c1.2,2.5,2.8,4.9,4.7,7.1c1.9,2.2,4,4.2,6.3,5.8c2.3,1.7,4.8,3,7.4,4c0.4,0.1,0.8,0.2,1.2,0.1
	c0.4-0.1,0.8-0.2,1.1-0.5l4.1-3.5c0.1-0.1,0.1-0.1,0.2-0.2c0-0.1,0-0.2,0-0.3c0-0.1,0-0.2,0-0.2c0-0.1-0.1-0.2-0.2-0.2
	c-1-0.8-2-1.6-3-2.4c-0.9-0.9-1.9-1.7-2.9-2.6c-0.1-0.1-0.2-0.2-0.4-0.2c-0.2,0-0.3,0-0.4,0.2l-2.9,2.4c-0.5,0.4-1.1,0.6-1.7,0.5
	c-0.6,0-1.2-0.3-1.7-0.7C14.7,24,13.2,22.5,11.9,21L11.9,21z"/>
</svg>
