<!-- Generator: Adobe Illustrator 24.0.1, SVG Export Plug-In  -->
<svg version="1.1" xmlns="http://www.w3.org/2000/svg" xmlns:xlink="http://www.w3.org/1999/xlink" x="0px" y="0px" width="34.9px"
	 height="34.8px" viewBox="0 0 34.9 34.8" style="enable-background:new 0 0 34.9 34.8;" xml:space="preserve">
<defs>
</defs>
<path d="M7.5,0h19.9c2,0,3.9,0.8,5.3,2.2c1.4,1.3,2.2,3.2,2.2,5.3v19.9c0,2-0.9,3.9-2.2,5.3c-1.3,1.4-3.2,2.2-5.3,2.2H7.5
	c-2,0-3.9-0.8-5.3-2.2C0.9,31.3,0,29.4,0,27.4V7.5c0-2,0.9-3.9,2.2-5.3C3.6,0.8,5.4,0,7.5,0L7.5,0z M5.7,28.2c-0.5,0-1-0.5-1-1
	c0-0.5,0.5-1,1-1h7.8c0.5,0,0.9,0.5,0.9,1c0,0.5-0.4,1-0.9,1H5.7z M5.7,22.3c-0.5,0-1-0.4-1-1c0-0.5,0.5-0.9,1-0.9h7.8
	c0.5,0,0.9,0.4,0.9,0.9c0,0.6-0.4,1-0.9,1H5.7z M5.7,16.4c-0.5,0-1-0.4-1-0.9c0-0.6,0.5-1,1-1h21.5c0.6,0,1,0.4,1,1
	c0,0.5-0.4,0.9-1,0.9H5.7z M5.7,10.6c-0.5,0-1-0.4-1-1c0-0.5,0.5-0.9,1-0.9h21.5c0.6,0,1,0.4,1,0.9c0,0.6-0.4,1-1,1H5.7z M27.4,1.9
	H7.5c-1.5,0-2.9,0.6-3.9,1.6c-1,1-1.6,2.4-1.6,3.9v19.9c0,1.5,0.6,2.9,1.6,3.9c1,1,2.4,1.6,3.9,1.6h19.9c1.5,0,2.9-0.6,3.9-1.6
	c1-1,1.6-2.4,1.6-3.9V7.5c0-1.5-0.6-2.9-1.6-3.9C30.3,2.6,28.9,1.9,27.4,1.9L27.4,1.9z"/>
</svg>
