<!-- Generator: Adobe Illustrator 24.0.1, SVG Export Plug-In  -->
<svg version="1.1" xmlns="http://www.w3.org/2000/svg" xmlns:xlink="http://www.w3.org/1999/xlink" x="0px" y="0px" width="36.8px"
	 height="37.1px" viewBox="0 0 36.8 37.1" style="enable-background:new 0 0 36.8 37.1;" xml:space="preserve">
<defs>
</defs>
<path d="M18.2,0c4,0,7.7,1.6,10.3,4.3c2.7,2.7,4.3,6.3,4.3,10.4c0,3.2-1,6.1-2.8,8.5l6.4,6.3c0.1,0.1,0.3,0.4,0.3,0.7
	c0,0.5-0.4,0.9-0.9,1l-4.9,0.1v4.9c0,0.2-0.1,0.5-0.3,0.7c-0.4,0.4-1,0.4-1.4,0l-7.9-7.9c-1,0.2-2.1,0.4-3.1,0.4
	c-1,0-1.9-0.1-2.9-0.3l-7.8,7.8c-0.4,0.4-1,0.4-1.4,0c-0.2-0.2-0.3-0.4-0.3-0.7v-4.9l-4.9-0.1c-0.5,0-0.9-0.5-0.9-1
	c0-0.3,0.1-0.5,0.3-0.7l6.1-6.1c-1.8-2.5-2.8-5.5-2.8-8.7c0-4.1,1.6-7.7,4.3-10.4C10.5,1.6,14.1,0,18.2,0L18.2,0z M19.1,5.8l2.2,4.4
	l4.8,0.8c0.6,0.1,0.9,0.6,0.9,1.1c0,0.2-0.1,0.4-0.3,0.6l-3.5,3.5L24,21c0,0.5-0.3,1-0.8,1.1c-0.2,0-0.5,0-0.7-0.1l-4.3-2.2L13.8,22
	c-0.5,0.2-1,0-1.3-0.4c-0.1-0.2-0.1-0.4-0.1-0.6l0.8-4.9l-3.5-3.5c-0.4-0.4-0.4-1,0-1.4c0.2-0.2,0.4-0.3,0.6-0.3l4.8-0.8l2.2-4.4
	c0.2-0.5,0.9-0.7,1.3-0.4C18.8,5.5,19,5.6,19.1,5.8L19.1,5.8z M19.8,11.5l-1.6-3.1l-1.6,3.1c-0.1,0.3-0.4,0.5-0.7,0.5l-3.5,0.5
	l2.5,2.5c0.2,0.2,0.3,0.5,0.3,0.9l-0.6,3.5l3.1-1.6c0.3-0.1,0.6-0.1,0.9,0l3.1,1.6l-0.6-3.4c0-0.3,0-0.7,0.3-0.9l2.5-2.5l-3.4-0.5
	C20.2,12,19.9,11.8,19.8,11.5L19.8,11.5z M13.2,28.4c-2-0.8-3.8-1.9-5.4-3.4l-0.1-0.1l-4.4,4.4l3.5,0.1h0c0.5,0,1,0.4,1,0.9v3.5
	L13.2,28.4z M28.9,24.7c-0.1,0.1-0.2,0.2-0.3,0.3c-1.4,1.4-3.2,2.6-5.1,3.3l5.5,5.5v-3.5c0-0.5,0.4-0.9,1-0.9h0l3.5-0.1L28.9,24.7z
	 M27.2,5.6c-2.3-2.3-5.5-3.7-9-3.7s-6.7,1.4-9,3.7c-2.3,2.3-3.7,5.5-3.7,9c0,3.5,1.4,6.7,3.7,9c1.6,1.6,3.6,2.8,5.8,3.3h0l0,0l0.1,0
	l0,0c0.9,0.2,2,0.3,3,0.3c3.5,0,6.6-1.4,9-3.7c2.3-2.3,3.7-5.5,3.7-9C30.9,11.2,29.5,8,27.2,5.6L27.2,5.6z"/>
</svg>
